<?xml version="1.0" standalone="no"?><!DOCTYPE svg PUBLIC "-//W3C//DTD SVG 1.1//EN" "http://www.w3.org/Graphics/SVG/1.1/DTD/svg11.dtd"><svg t="1634883115874" class="icon" viewBox="0 0 1024 1024" version="1.1" xmlns="http://www.w3.org/2000/svg" p-id="8819" data-spm-anchor-id="a313x.7781069.0.i4" xmlns:xlink="http://www.w3.org/1999/xlink" width="32" height="32"><defs><style type="text/css"></style></defs><path d="M977.454545 279.272727h-93.090909v651.636364a93.090909 93.090909 0 0 1-93.090909 93.090909H232.727273a93.090909 93.090909 0 0 1-93.090909-93.090909V279.272727H46.545455a46.545455 46.545455 0 0 1 0-93.090909h930.90909a46.545455 46.545455 0 0 1 0 93.090909z m-698.181818 0a46.545455 46.545455 0 0 0-46.545454 46.545455v558.545454a46.545455 46.545455 0 0 0 46.545454 46.545455h465.454546a46.545455 46.545455 0 0 0 46.545454-46.545455V325.818182a46.545455 46.545455 0 0 0-46.545454-46.545455H279.272727z m395.636364 581.818182a23.272727 23.272727 0 0 1-23.272727-23.272727V372.363636a23.272727 23.272727 0 0 1 46.545454 0v465.454546a23.272727 23.272727 0 0 1-23.272727 23.272727z m-162.909091 0a23.272727 23.272727 0 0 1-23.272727-23.272727V372.363636a23.272727 23.272727 0 0 1 46.545454 0v465.454546a23.272727 23.272727 0 0 1-23.272727 23.272727z m-162.909091 0a23.272727 23.272727 0 0 1-23.272727-23.272727V372.363636a23.272727 23.272727 0 0 1 46.545454 0v465.454546a23.272727 23.272727 0 0 1-23.272727 23.272727zM674.909091 93.090909H349.090909a46.545455 46.545455 0 0 1 0-93.090909h325.818182a46.545455 46.545455 0 0 1 0 93.090909z" p-id="8820" fill="#707070"></path></svg>